# xmcd CD database file
#
# Track frame offsets:
#	150
#	15233
#	30485
#	47763
#	67123
#	82608
#	107600
#	129048
#	141543
#	157473
#	173993
#	190613
#	210273
#	233145
#
# Disc length: 3346 seconds
#
# Revision: 1
# Processed by: cddbd v1.5.1PL0 Copyright (c) Steve Scherf et al.
# Submitted via: CDex 1.51
#
DISCID=ae0d100e
DTITLE=Phantom's Opera - Phantom's Opera
DYEAR=1995
DGENRE=Hard Rock
TTITLE0=Lie Laura
TTITLE1=Just A Matter Of Time
TTITLE2=It Ain't Love
TTITLE3=Love's A Painful Game
TTITLE4=Let The Devil Beware
TTITLE5=Child Known Love
TTITLE6=Motorcycle Rock
TTITLE7=Lovin' You Is A Sin
TTITLE8=Two Kinds Of People
TTITLE9=Moonlight
TTITLE10=Rock On
TTITLE11=Breakaway
TTITLE12=Portrait Of Dorian Grey
TTITLE13=Word From The Master
EXTD=YEAR: 1995
EXTT0=
EXTT1=
EXTT2=
EXTT3=
EXTT4=
EXTT5=
EXTT6=
EXTT7=
EXTT8=
EXTT9=
EXTT10=
EXTT11=
EXTT12=
EXTT13=
PLAYORDER=
